# This file uses centimeters as units for non-parametric coordinates.

mtllib Middlelesshex.mtl
g default
v 0.479188 -0.036495 -0.829978
v -0.479188 -0.036495 -0.829978
v -0.958376 -0.036495 -0.000000
v -0.479188 -0.036495 0.829978
v 0.479188 -0.036495 0.829978
v 0.958376 -0.036495 0.000000
v 0.500000 -0.036446 -0.866025
v -0.500000 -0.036446 -0.866026
v -1.000000 -0.036446 -0.000000
v -0.500000 -0.036446 0.866025
v 0.500000 -0.036446 0.866025
v 1.000000 -0.036446 0.000000
v 0.500000 0.036446 -0.866025
v -0.500000 0.036446 -0.866026
v -1.000000 0.036446 -0.000000
v -0.500000 0.036446 0.866025
v 0.500000 0.036446 0.866025
v 1.000000 0.036446 0.000000
v 0.479188 0.036495 -0.829978
v -0.479188 0.036495 -0.829978
v -0.958376 0.036495 -0.000000
v -0.479188 0.036495 0.829978
v 0.479188 0.036495 0.829978
v 0.958375 0.036495 0.000000
vt 0.539063 0.088592
vt 0.460938 0.088592
vt 0.421875 0.156250
vt 0.460938 0.223908
vt 0.539063 0.223908
vt 0.578125 0.156250
vt 0.578125 0.020934
vt 0.421875 0.020934
vt 0.343750 0.156250
vt 0.421875 0.291566
vt 0.578125 0.291566
vt 0.656250 0.156250
vt 0.375000 0.312500
vt 0.416667 0.312500
vt 0.458333 0.312500
vt 0.500000 0.312500
vt 0.541667 0.312500
vt 0.583333 0.312500
vt 0.625000 0.312500
vt 0.375000 0.688440
vt 0.416667 0.688440
vt 0.458333 0.688440
vt 0.500000 0.688440
vt 0.541667 0.688440
vt 0.583333 0.688440
vt 0.625000 0.688440
vt 0.578125 0.708434
vt 0.421875 0.708434
vt 0.343750 0.843750
vt 0.421875 0.979066
vt 0.578125 0.979066
vt 0.656250 0.843750
vt 0.539063 0.776092
vt 0.460938 0.776092
vt 0.421875 0.843750
vt 0.460938 0.911408
vt 0.539063 0.911408
vt 0.578125 0.843750
vn 0.000581 -0.999999 -0.001006
vn -0.000581 -0.999999 -0.001006
vn -0.000581 -0.999999 -0.001006
vn 0.000581 -0.999999 -0.001006
vn -0.001162 -0.999999 0.000000
vn -0.001162 -0.999999 0.000000
vn -0.000581 -0.999999 0.001006
vn -0.000581 -0.999999 0.001006
vn 0.000581 -0.999999 0.001006
vn 0.000581 -0.999999 0.001006
vn 0.001162 -0.999999 -0.000000
vn 0.001162 -0.999999 -0.000000
vn 0.000000 -0.000001 -1.000000
vn 0.000000 -0.000001 -1.000000
vn 0.000000 -0.000001 -1.000000
vn 0.000000 -0.000001 -1.000000
vn -0.866025 -0.000000 -0.500000
vn -0.866025 -0.000000 -0.500000
vn -0.866025 -0.000000 -0.500000
vn -0.866025 -0.000000 -0.500000
vn -0.866026 -0.000001 0.500000
vn -0.866026 -0.000001 0.500000
vn -0.866026 -0.000001 0.500000
vn -0.866026 -0.000001 0.500000
vn 0.000000 0.000000 1.000000
vn 0.000000 0.000000 1.000000
vn 0.000000 0.000000 1.000000
vn 0.000000 0.000000 1.000000
vn 0.866026 0.000001 0.500000
vn 0.866025 0.000001 0.500000
vn 0.866026 0.000001 0.500000
vn 0.866026 0.000001 0.500000
vn 0.866026 0.000002 -0.500000
vn 0.866026 0.000002 -0.500000
vn 0.866026 0.000002 -0.500000
vn 0.866026 0.000002 -0.500000
vn 0.000581 0.999999 -0.001006
vn -0.000581 0.999999 -0.001006
vn -0.000581 0.999999 -0.001006
vn 0.000581 0.999999 -0.001006
vn -0.001162 0.999999 -0.000000
vn -0.001162 0.999999 -0.000000
vn -0.000581 0.999999 0.001006
vn -0.000581 0.999999 0.001006
vn 0.000581 0.999999 0.001006
vn 0.000581 0.999999 0.001006
vn 0.001162 0.999999 0.000000
vn 0.001162 0.999999 0.000000
vn 0.866026 0.000000 -0.500000
vn 0.866026 0.000000 -0.500000
vn 0.866026 0.000000 -0.500000
vn 0.866026 0.000000 -0.500000
vn 0.866026 0.000000 0.500000
vn 0.866026 0.000000 0.500000
vn 0.866026 0.000000 0.500000
vn 0.866026 0.000000 0.500000
vn -0.000000 -0.000001 1.000000
vn -0.000000 -0.000001 1.000000
vn -0.000000 -0.000001 1.000000
vn -0.000000 -0.000001 1.000000
vn -0.866026 -0.000002 0.500000
vn -0.866026 -0.000002 0.500000
vn -0.866026 -0.000002 0.500000
vn -0.866026 -0.000002 0.500000
vn -0.866026 -0.000001 -0.500000
vn -0.866026 -0.000001 -0.500000
vn -0.866026 -0.000001 -0.500000
vn -0.866026 -0.000001 -0.500000
vn 0.000000 0.000000 -1.000000
vn 0.000000 0.000000 -1.000000
vn 0.000000 0.000000 -1.000000
vn 0.000000 0.000000 -1.000000
s 1
g pCylinder1
usemtl initialShadingGroup
f 1/1/1 2/2/2 8/8/3 7/7/4
f 2/2/2 3/3/5 9/9/6 8/8/3
f 3/3/5 4/4/7 10/10/8 9/9/6
f 4/4/7 5/5/9 11/11/10 10/10/8
f 5/5/9 6/6/11 12/12/12 11/11/10
f 6/6/11 1/1/1 7/7/4 12/12/12
s off
f 7/13/13 8/14/14 14/21/15 13/20/16
f 8/14/17 9/15/18 15/22/19 14/21/20
f 9/15/21 10/16/22 16/23/23 15/22/24
f 10/16/25 11/17/26 17/24/27 16/23/28
f 11/17/29 12/18/30 18/25/31 17/24/32
f 12/18/33 7/19/34 13/26/35 18/25/36
s 2
f 13/31/37 14/30/38 20/36/39 19/37/40
f 14/30/38 15/29/41 21/35/42 20/36/39
f 15/29/41 16/28/43 22/34/44 21/35/42
f 16/28/43 17/27/45 23/33/46 22/34/44
f 17/27/45 18/32/47 24/38/48 23/33/46
f 18/32/47 13/31/37 19/37/40 24/38/48
s off
f 4/4/49 3/3/50 21/35/51 22/34/52
f 3/3/53 2/2/54 20/36/55 21/35/56
f 2/2/57 1/1/58 19/37/59 20/36/60
f 1/1/61 6/6/62 24/38/63 19/37/64
f 6/6/65 5/5/66 23/33/67 24/38/68
f 5/5/69 4/4/70 22/34/71 23/33/72
