# File produced by Open Asset Import Library (http://www.assimp.sf.net)
# (assimp v3.1.206520482)

mtllib game-ready.mtl

# 84 vertex positions
v 14.5827 23.8929 12.1451
v 20.4302 23.8929 12.1451
v 14.5827 30.0814 12.1451
v 20.4302 30.0814 12.1451
v 20.4302 30.0814 5.53243
v 20.4302 30.0814 -0.449105
v 14.5827 30.0814 4.86501
v 14.5827 30.0814 -0.449105
v 14.5827 23.8929 -0.449105
v 20.4302 23.8929 -0.449105
v 14.5827 23.8929 4.86501
v 20.4302 23.8929 5.53243
v 14.5827 23.8929 8.52478
v 20.4302 23.8929 8.52478
v 54.3144 23.8929 5.53243
v 54.3144 30.0814 5.53243
v 54.3144 23.8929 8.52478
v 54.3144 30.0814 8.52478
v 14.5827 30.0814 8.52478
v 20.4302 30.0814 8.52478
v 4.1819 30.0814 8.52478
v 4.1819 23.8929 8.52478
v 4.1819 30.0814 12.1451
v 4.1819 23.8929 12.1451
v 11.5577 30.0814 8.52478
v 11.5577 23.8929 8.52478
v 11.5577 23.8929 12.1451
v 11.5577 30.0814 12.1451
v 8.47019 30.0814 8.52478
v 8.47019 23.8929 8.52478
v 8.47019 23.8929 12.1451
v 8.47019 30.0814 12.1451
v 8.47019 23.8929 18.6066
v 8.47019 30.0814 18.6066
v 4.1819 23.8929 18.6066
v 4.1819 30.0814 18.6066
v 8.47019 23.8929 14.836
v 8.47019 30.0814 14.836
v 4.1819 30.0814 14.836
v 4.1819 23.8929 14.836
v -6.87964 30.0814 14.836
v -6.87964 23.8929 14.836
v -6.87964 30.0814 18.6066
v -6.87964 23.8929 18.6066
v 0.0357323 30.0814 14.836
v 0.0357323 23.8929 14.836
v 0.0357323 23.8929 18.6066
v 0.0357323 30.0814 18.6066
v -2.98186 30.0814 14.836
v -2.98186 23.8929 14.836
v -2.98186 23.8929 18.6066
v -2.98186 30.0814 18.6066
v -2.98186 30.0814 7.91636
v -2.98186 23.8929 7.91636
v -6.87964 30.0814 7.91636
v -6.87964 23.8929 7.91636
v -2.98186 30.0814 12.1945
v -2.98186 23.8929 12.1945
v -6.87964 23.8929 12.1945
v -6.87964 30.0814 12.1945
v -21.0364 23.8929 12.1946
v -21.0364 30.0814 12.1946
v -21.0364 23.8929 7.91637
v -21.0364 30.0814 7.91637
v -18.3391 23.8929 12.1946
v -18.3391 30.0814 12.1946
v -18.3391 30.0814 7.91637
v -18.3391 23.8929 7.91637
v -18.6193 30.0814 12.1946
v -18.6193 30.0814 7.91637
v -18.6193 23.8929 12.1946
v -18.6193 23.8929 7.91637
v -18.3391 30.0814 4.62013
v -18.3391 23.8929 4.62013
v -18.6193 30.0814 -6.45827
v -18.6193 23.8929 -6.45827
v -21.0364 23.8929 -6.45827
v -21.0364 30.0814 -6.45827
v -18.6193 -2.25978 7.91637
v -18.6193 -2.25978 12.1946
v -21.0364 -2.25978 7.91637
v -21.0364 -2.25978 12.1946
v -18.6193 -2.25978 -6.45827
v -21.0364 -2.25978 -6.45827

# 210 UV coordinates
vt 0.331069 0.825619 0
vt 0.331069 0.764338 0
vt 0.395924 0.825619 0
vt 0.395924 0.764338 0
vt 0.137016 0.355103 0
vt 0.199702 0.355103 0
vt 0.14401 0.416384 0
vt 0.199702 0.416384 0
vt 0.204833 0.883715 0
vt 0.266114 0.883715 0
vt 0.204833 0.94857 0
vt 0.266114 0.94857 0
vt 0.328226 0.416384 0
vt 0.328226 0.355103 0
vt 0.383917 0.416384 0
vt 0.390912 0.355103 0
vt 0.269148 0.889678 0
vt 0.331834 0.889678 0
vt 0.269148 0.954533 0
vt 0.331834 0.954533 0
vt 0.197072 0.883715 0
vt 0.197072 0.828024 0
vt 0.261927 0.883715 0
vt 0.261927 0.828024 0
vt 0.422271 0.416384 0
vt 0.422271 0.355103 0
vt 0.366772 0.889678 0
vt 0.366772 0.954533 0
vt 0.335412 0.889678 0
vt 0.335412 0.954533 0
vt 0.105656 0.416384 0
vt 0.105656 0.355103 0
vt 0.261927 0.78967 0
vt 0.197072 0.78967 0
vt 0.595161 0.355103 0
vt 0.530306 0.355103 0
vt 0.595161 0 0
vt 0.530306 0 0
vt 0.137016 0 0
vt 0.105656 0 0
vt 0.663374 0.355103 0
vt 0.598519 0.355103 0
vt 0.663374 0 0
vt 0.598519 0 0
vt 0.422271 0 0
vt 0.390912 0 0
vt 0.460212 0.416384 0
vt 0.460212 0.355103 0
vt 0.408434 0.914983 0
vt 0.408434 0.979838 0
vt 0.370493 0.914983 0
vt 0.370493 0.979838 0
vt 0.067716 0.355103 0
vt 0.067716 0.416384 0
vt 0.201475 0.949856 0
vt 0.136621 0.949856 0
vt 0.201475 0.911915 0
vt 0.136621 0.911915 0
vt 0.264071 0.764338 0
vt 0.328925 0.764338 0
vt 0.264071 0.79604 0
vt 0.328925 0.79604 0
vt 0.422271 0.448086 0
vt 0.460212 0.448086 0
vt 0.331069 0.857321 0
vt 0.395924 0.857321 0
vt 0.067716 0.448086 0
vt 0.105656 0.448086 0
vt 0.264071 0.828397 0
vt 0.328925 0.828397 0
vt 0.422271 0.480443 0
vt 0.460212 0.480443 0
vt 0.331069 0.889678 0
vt 0.395924 0.889678 0
vt 0.067716 0.480443 0
vt 0.105656 0.480443 0
vt 0.264071 0.873338 0
vt 0.328925 0.873338 0
vt 0.422271 0.525384 0
vt 0.460212 0.525384 0
vt 0.465067 0.764338 0
vt 0.529921 0.764338 0
vt 0.465067 0.809279 0
vt 0.529921 0.809279 0
vt 0.067716 0.525384 0
vt 0.105656 0.525384 0
vt 0 0.862186 0
vt 0.064855 0.862186 0
vt 0 0.890386 0
vt 0.064855 0.890386 0
vt 0.039516 0.480443 0
vt 0.039516 0.525384 0
vt 0.201475 0.883715 0
vt 0.136621 0.883715 0
vt 0.488412 0.525384 0
vt 0.488412 0.480443 0
vt 0 0.480443 0
vt 0 0.525384 0
vt 0 0.929902 0
vt 0.064855 0.929902 0
vt 0.527927 0.525384 0
vt 0.527927 0.480443 0
vt 0.133263 0.904261 0
vt 0.068408 0.904261 0
vt 0.133263 0.864745 0
vt 0.068408 0.864745 0
vt 0.130073 0.78967 0
vt 0.194928 0.78967 0
vt 0.130073 0.833121 0
vt 0.194928 0.833121 0
vt 0.488412 0.568835 0
vt 0.527927 0.568835 0
vt 0.465067 0.852731 0
vt 0.529921 0.852731 0
vt 0 0.568835 0
vt 0.039516 0.568835 0
vt 0.130073 0.864745 0
vt 0.194928 0.864745 0
vt 0.488412 0.600459 0
vt 0.527927 0.600459 0
vt 0.465067 0.884355 0
vt 0.529921 0.884355 0
vt 0 0.600459 0
vt 0.039516 0.600459 0
vt 0.532065 0.355103 0
vt 0.59692 0.355103 0
vt 0.532065 0.395952 0
vt 0.59692 0.395952 0
vt 0.488412 0.641308 0
vt 0.527927 0.641308 0
vt 0.465067 0.925203 0
vt 0.529921 0.925203 0
vt 0 0.641308 0
vt 0.039516 0.641308 0
vt 0.127929 0.862186 0
vt 0.063075 0.862186 0
vt 0.127929 0.834505 0
vt 0.063075 0.834505 0
vt 0.46073 0.600459 0
vt 0.46073 0.641308 0
vt 0.068408 0.931942 0
vt 0.133263 0.931942 0
vt 0.067197 0.641308 0
vt 0.067197 0.600459 0
vt 0.862211 0.274077 0
vt 0.862211 0.338932 0
vt 0.817376 0.274077 0
vt 0.817376 0.338932 0
vt 0.415895 0.600459 0
vt 0.415895 0.641308 0
vt 0.127929 0.78967 0
vt 0.063075 0.78967 0
vt 0.112032 0.641308 0
vt 0.112032 0.600459 0
vt 1 0.613009 0
vt 1 0.677864 0
vt 0.879906 0.613009 0
vt 0.879906 0.677864 0
vt 0.067197 0.761402 0
vt 0.112032 0.761402 0
vt 0.532065 0.516046 0
vt 0.59692 0.516046 0
vt 0.415895 0.761402 0
vt 0.46073 0.761402 0
vt 0.067197 0.764338 0
vt 0.112032 0.764338 0
vt 0.876969 0.613009 0
vt 0.876969 0.677864 0
vt 0.415895 0.764338 0
vt 0.46073 0.764338 0
vt 0.462923 0.880439 0
vt 0.398068 0.880439 0
vt 0.462923 0.764338 0
vt 0.398068 0.764338 0
vt 0.462923 0.914983 0
vt 0.398068 0.914983 0
vt 0.381351 0.761402 0
vt 0.26525 0.764338 0
vt 0.666732 0.274077 0
vt 0.666732 0.338932 0
vt 0.146576 0.761402 0
vt 0.262677 0.764338 0
vt 0.624395 0.505748 0
vt 0.624395 0.550583 0
vt 0.599064 0.505748 0
vt 0.599064 0.550583 0
vt 0.624395 0.355103 0
vt 0.599064 0.355103 0
vt 0.849494 0.338932 0
vt 0.849494 0.403787 0
vt 0.824163 0.338932 0
vt 0.824163 0.403787 0
vt 0.112032 0.78967 0
vt 0.262677 0.78967 0
vt 0.067197 0.78967 0
vt 0.851638 0.613009 0
vt 0.851638 0.677864 0
vt 0.671374 0.62918 0
vt 0.626539 0.62918 0
vt 0.671374 0.355103 0
vt 0.626539 0.355103 0
vt 0.876969 0.338932 0
vt 0.851638 0.338932 0
vt 0.862211 0 0
vt 0.817376 0 0
vt 0.822019 0.62918 0
vt 0.822019 0.355103 0
vt 0.666732 0 0
vt 0.824163 0.677864 0
vt 0.849494 0.677864 0

# 13 vertex normals
vn 0 0 1
vn 0 1 0
vn 0 0 -1
vn 0 -1 0
vn 1 0 0
vn -1 0 0
vn -1 0 -1e-06
vn 0 -1 1e-06
vn 0.99968 0 -0.025283
vn 0.971616 0 -0.236565
vn 0.651158 0 -0.758942
vn -1e-06 0 -1
vn 1e-06 0 1

# Mesh 'g ceiling_1:watercity_squad:polySurface157 ceiling_1:watercity_squad:directionalLight2 ceiling_1:group_ceiling_1:watercity_squad:polySurface157 ceiling_1:watercity_squad:directionalLight2 ceiling_1:group' with 164 faces
g g ceiling_1:watercity_squad:polySurface157 ceiling_1:watercity_squad:directionalLight2 ceiling_1:group_ceiling_1:watercity_squad:polySurface157 ceiling_1:watercity_squad:directionalLight2 ceiling_1:group
usemtl DefaultMaterial
f 1/1/1 2/2/1 3/3/1
f 3/3/1 2/2/1 4/4/1
f 5/5/2 6/6/2 7/7/2
f 7/7/2 6/6/2 8/8/2
f 8/9/3 6/10/3 9/11/3
f 9/11/3 6/10/3 10/12/3
f 9/13/4 10/14/4 11/15/4
f 11/15/4 10/14/4 12/16/4
f 12/17/5 10/18/5 5/19/5
f 5/19/5 10/18/5 6/20/5
f 9/21/6 11/22/6 8/23/6
f 8/23/6 11/22/6 7/24/6
f 11/15/4 12/16/4 13/25/4
f 13/25/4 12/16/4 14/26/4
f 15/27/5 16/28/5 17/29/5
f 17/29/5 16/28/5 18/30/5
f 7/7/2 19/31/2 5/5/2
f 5/5/2 19/31/2 20/32/2
f 7/24/6 11/22/6 19/33/6
f 19/33/6 11/22/6 13/34/6
f 12/35/3 5/36/3 15/37/3
f 15/37/3 5/36/3 16/38/3
f 5/5/2 20/32/2 16/39/2
f 16/39/2 20/32/2 18/40/2
f 20/41/1 14/42/1 18/43/1
f 18/43/1 14/42/1 17/44/1
f 14/26/4 12/16/4 17/45/4
f 17/45/4 12/16/4 15/46/4
f 13/25/4 14/26/4 1/47/4
f 1/47/4 14/26/4 2/48/4
f 14/49/5 20/50/5 2/51/5
f 2/51/5 20/50/5 4/52/5
f 20/32/2 19/31/2 4/53/2
f 4/53/2 19/31/2 3/54/2
f 21/55/6 22/56/6 23/57/6
f 23/57/6 22/56/6 24/58/6
f 19/59/3 13/60/3 25/61/3
f 25/61/3 13/60/3 26/62/3
f 13/25/4 1/47/4 26/63/4
f 26/63/4 1/47/4 27/64/4
f 1/1/1 3/3/1 27/65/1
f 27/65/1 3/3/1 28/66/1
f 3/54/2 19/31/2 28/67/2
f 28/67/2 19/31/2 25/68/2
f 25/61/3 26/62/3 29/69/3
f 29/69/3 26/62/3 30/70/3
f 26/63/4 27/64/4 30/71/4
f 30/71/4 27/64/4 31/72/4
f 27/65/1 28/66/1 31/73/1
f 31/73/1 28/66/1 32/74/1
f 28/67/2 25/68/2 32/75/2
f 32/75/2 25/68/2 29/76/2
f 29/69/3 30/70/3 21/77/3
f 21/77/3 30/70/3 22/78/3
f 30/71/4 31/72/4 22/79/4
f 22/79/4 31/72/4 24/80/4
f 33/81/1 34/82/1 35/83/1
f 35/83/1 34/82/1 36/84/1
f 32/75/2 29/76/2 23/85/2
f 23/85/2 29/76/2 21/86/2
f 31/87/5 32/88/5 37/89/5
f 37/89/5 32/88/5 38/90/5
f 32/75/2 23/85/2 38/91/2
f 38/91/2 23/85/2 39/92/2
f 23/57/6 24/58/6 39/93/6
f 39/93/6 24/58/6 40/94/6
f 24/80/4 31/72/4 40/95/4
f 40/95/4 31/72/4 37/96/4
f 38/91/2 39/92/2 34/97/2
f 34/97/2 39/92/2 36/98/2
f 37/89/5 38/90/5 33/99/5
f 33/99/5 38/90/5 34/100/5
f 40/95/4 37/96/4 35/101/4
f 35/101/4 37/96/4 33/102/4
f 41/103/6 42/104/6 43/105/6
f 43/105/6 42/104/6 44/106/6
f 39/107/3 40/108/3 45/109/3
f 45/109/3 40/108/3 46/110/3
f 40/95/4 35/101/4 46/111/4
f 46/111/4 35/101/4 47/112/4
f 35/83/1 36/84/1 47/113/1
f 47/113/1 36/84/1 48/114/1
f 36/98/2 39/92/2 48/115/2
f 48/115/2 39/92/2 45/116/2
f 45/109/3 46/110/3 49/117/3
f 49/117/3 46/110/3 50/118/3
f 46/111/4 47/112/4 50/119/4
f 50/119/4 47/112/4 51/120/4
f 47/113/1 48/114/1 51/121/1
f 51/121/1 48/114/1 52/122/1
f 48/115/2 45/116/2 52/123/2
f 52/123/2 45/116/2 49/124/2
f 53/125/3 54/126/3 55/127/3
f 55/127/3 54/126/3 56/128/3
f 50/119/4 51/120/4 42/129/4
f 42/129/4 51/120/4 44/130/4
f 51/121/1 52/122/1 44/131/1
f 44/131/1 52/122/1 43/132/1
f 52/123/2 49/124/2 43/133/2
f 43/133/2 49/124/2 41/134/2
f 49/135/5 50/136/5 57/137/5
f 57/137/5 50/136/5 58/138/5
f 50/119/4 42/129/4 58/139/4
f 58/139/4 42/129/4 59/140/4
f 42/104/6 41/103/6 59/141/7
f 59/141/7 41/103/6 60/142/7
f 41/134/2 49/124/2 60/143/2
f 60/143/2 49/124/2 57/144/2
f 61/145/6 62/146/6 63/147/6
f 63/147/6 62/146/6 64/148/6
f 58/139/4 59/140/4 54/149/4
f 54/149/4 59/140/4 56/150/4
f 57/137/5 58/138/5 53/151/5
f 53/151/5 58/138/5 54/152/5
f 60/143/2 57/144/2 55/153/2
f 55/153/2 57/144/2 53/154/2
f 59/155/1 60/156/1 65/157/1
f 65/157/1 60/156/1 66/158/1
f 60/143/2 55/153/2 66/159/2
f 66/159/2 55/153/2 67/160/2
f 55/127/3 56/128/3 67/161/3
f 67/161/3 56/128/3 68/162/3
f 56/150/4 59/140/4 68/163/8
f 68/163/8 59/140/4 65/164/8
f 66/159/2 67/160/2 69/165/2
f 69/165/2 67/160/2 70/166/2
f 65/157/1 66/158/1 71/167/1
f 71/167/1 66/158/1 69/168/1
f 68/163/8 65/164/8 72/169/4
f 72/169/4 65/164/8 71/170/4
f 73/171/9 74/172/9 75/173/10
f 75/173/10 74/172/9 76/174/11
f 67/175/5 68/176/5 73/171/5
f 73/171/5 68/176/5 74/172/5
f 68/163/8 72/169/4 74/177/4
f 74/177/4 72/169/4 76/178/4
f 63/147/6 64/148/6 77/179/6
f 77/179/6 64/148/6 78/180/6
f 67/160/2 73/181/2 70/166/2
f 70/166/2 73/181/2 75/182/2
f 79/183/4 80/184/4 81/185/4
f 81/185/4 80/184/4 82/186/4
f 83/187/4 79/183/4 84/188/4
f 84/188/4 79/183/4 81/185/4
f 75/189/10 76/190/11 78/191/12
f 78/191/12 76/190/11 77/192/3
f 64/193/2 70/166/2 78/194/2
f 78/194/2 70/166/2 75/182/2
f 69/165/2 70/166/2 62/195/2
f 62/195/2 70/166/2 64/193/2
f 71/167/1 69/168/1 61/196/1
f 61/196/1 69/168/1 62/197/13
f 72/198/5 71/199/5 79/200/5
f 79/200/5 71/199/5 80/201/5
f 71/167/1 61/196/1 80/202/1
f 80/202/1 61/196/1 82/203/1
f 61/145/6 63/147/6 82/204/6
f 82/204/6 63/147/6 81/205/6
f 76/206/5 72/198/5 83/207/5
f 83/207/5 72/198/5 79/200/5
f 63/147/6 77/179/6 81/205/6
f 81/205/6 77/179/6 84/208/6
f 77/192/3 76/190/11 84/209/3
f 84/209/3 76/190/11 83/210/3

